<?xml version="1.0" encoding="utf-8"?>
<!-- Generator: Adobe Illustrator 25.2.1, SVG Export Plug-In . SVG Version: 6.00 Build 0)  -->
<svg version="1.1" id="Layer_1" xmlns="http://www.w3.org/2000/svg" xmlns:xlink="http://www.w3.org/1999/xlink" x="0px" y="0px"
	 viewBox="0 0 75 15" style="enable-background:new 0 0 75 15;" xml:space="preserve">
<style type="text/css">
	.st0{fill:#F09EA7;}
	.st1{fill:#F6CA94;}
	.st2{fill:#FAFABE;}
	.st3{fill:#C1EBC0;}
	.st4{fill:#C7CAFF;}
	.st5{fill:#CDABEB;}
</style>
<path class="st0" d="M21.58,10.08h-2.34l-0.34,0.81h-1.76l3.27-6.83c0.03-0.07,0.09-0.07,0.12,0l3.26,6.83h-1.86L21.58,10.08z
	 M19.79,8.78h1.21l-0.61-1.42L19.79,8.78z"/>
<path class="st1" d="M24.34,8.3V4.18h1.8v4.1c0,0.76,0.36,1.19,1.12,1.19c0.76,0,1.12-0.43,1.12-1.19v-4.1h1.8V8.3
	c0,1.81-1.23,2.69-2.91,2.69C25.58,10.99,24.34,10.1,24.34,8.3z"/>
<path class="st2" d="M33.06,10.89h-1.8V4.18h2.71c1.71,0,2.66,1.01,2.66,2.38c0,0.89-0.42,1.59-1.22,1.95l1.39,2.38h-1.94l-1.18-2.1
	h-0.61V10.89z M33.89,7.42c0.61,0,0.94-0.31,0.94-0.86c0-0.55-0.33-0.86-0.94-0.86h-0.83v1.72H33.89z"/>
<path class="st3" d="M37.32,7.54c0-2.02,1.67-3.43,3.6-3.43s3.6,1.41,3.6,3.43c0,2.02-1.67,3.44-3.6,3.44S37.32,9.56,37.32,7.54z
	 M42.69,7.54c0-1.06-0.64-1.88-1.77-1.88s-1.77,0.82-1.77,1.88s0.64,1.89,1.77,1.89S42.69,8.59,42.69,7.54z"/>
<path class="st4" d="M47.16,10.89h-1.8V4.18h2.71c1.71,0,2.66,1.01,2.66,2.38c0,0.89-0.42,1.59-1.22,1.95l1.39,2.38h-1.94l-1.18-2.1
	h-0.61V10.89z M47.99,7.42c0.61,0,0.94-0.31,0.94-0.86c0-0.55-0.33-0.86-0.94-0.86h-0.83v1.72H47.99z"/>
<path class="st5" d="M55.64,10.08H53.3l-0.34,0.81h-1.76l3.27-6.83c0.03-0.07,0.09-0.07,0.12,0l3.26,6.83H56L55.64,10.08z
	 M53.86,8.78h1.21l-0.61-1.42L53.86,8.78z"/>
</svg>
